Patient4_TMGait_0pt4_01_left_25_EMG.mot
version=1
nRows=23
nColumns=33
inDegrees=no
endheader
time	1LAddLong	2LGlutMax	3LGlutMed	4LIliopsoas	5LSemiMemb	6LBicFemLong	7LRecFem	8LVastMed	9LVastLat	10LGasMed	11LTibAnt	12lTibPost	13LPeroneusLong	14LSol	15LExtDigLong	16LFlexDigLong	17RAddLong	18RGlutMax	19RGlutMed	20RIliopsoas	21RSemiMemb	22RBicFemLong	23RRecFem	24RVastMed	25RVastLat	26RGasMed	27RTibAnt	28RTibPost	29RPeroneusLong	30RSol	31RExtDigLong	32RFlexDigLong
30.23	-0.001984	0.28961	0.039215	-0.018311	0.013428	-0.013123	0.46616	0.022736	-0.21683	-0.049286	0.090637	-0.005798	-0.07782	0.034943	0.098267	0.025787	-0.002594	0.43945	-0.39917	0.088501	0.041962	0.1152	-0.047607	0.098419	0.044556	-0.024872	-0.027618	-0.002747	0.066833	-0.045013	-0.002441	-0.007935
30.231	0.00473	0.29343	0.031738	-0.006714	0.022888	0.007477	0.45212	0.023193	-0.17929	-0.051575	0.21454	0.006561	-0.060425	0.037384	0.097961	0.030365	0.028839	0.2684	-0.061188	0.050354	0.14648	0.027618	0.076141	-0.005035	0.03006	-0.010681	-0.13534	-0.002594	0.1207	0.067749	-0.003662	0.000763
30.232	-0.003815	0.27115	0.023499	-0.006866	0.011444	0.004425	0.41077	0.024567	-0.14435	-0.09491	0.17654	0.003204	0.008545	0.001373	0.099945	0.013733	0.089722	0.16922	0.31754	0.041962	0.016479	-0.024719	0.16754	-0.050201	0.001068	0.030975	-0.11871	-0.006866	-0.13748	0.088654	-0.001221	-0.001831
30.233	0.005493	0.27313	0.02533	0.012817	-0.004272	-0.019684	0.3688	0.020142	-0.11505	-0.10407	0.09903	0.005188	0.083771	0.022736	0.16892	0.016174	0.069733	0.11734	0.21194	-0.039978	-0.2121	0.018616	0.14175	0.003967	-0.012207	0.040894	-0.027618	-0.001373	-0.012512	-0.052185	-0.001068	-0.000916
30.234	-0.032959	0.28686	0.045471	0.00946	-0.014954	-0.042419	0.34836	0.021667	-0.1033	-0.020599	-0.22064	-0.001678	0.072479	0.048523	0.028076	0.019379	0.024261	0.082245	0.085449	-0.097504	-0.45349	0.041351	0.22186	-0.009918	-0.009766	0.036926	0.058441	-0.003967	-0.94284	-0.03952	-0.00412	-0.00885
30.235	0.04837	0.28183	0.035553	0.006104	-0.012665	-0.045319	0.29587	0.015106	-0.066986	0.060272	-0.13947	0.005188	0.058441	0.031586	-0.061188	0.00885	-0.024872	0.052643	0.63736	-0.16312	-0.072479	-0.079346	0.26169	0.057831	-0.045319	0.042267	0.029907	-0.007477	-0.98419	-0.088501	-0.001678	-0.009155
30.236	-0.075378	0.2771	0.029144	0.023651	0.003204	-0.016174	0.28946	0.019836	-0.049438	0.078278	-0.067596	0.005341	0.058136	0.018005	-0.11734	0.018768	-0.067444	-0.001373	0.69046	-0.10712	0.10101	-0.007629	0.004425	0.12634	-0.11597	0.002136	-0.036469	-0.007172	0.057678	-0.092468	-0.007019	-0.010681
30.237	0.034027	0.22781	0.027313	0.030975	-0.005646	-0.011902	0.26413	0.017395	-0.040283	0.032959	0.00061	0.000153	0.045013	-0.014343	-0.10849	0.011292	-0.052795	-0.10407	0.43167	0.006104	0.11704	0.07431	-0.12421	0.077362	-0.13412	-0.025177	-0.041351	-0.003204	0.54245	0.005951	-0.003967	-0.010986
30.238	-0.005646	0.23514	0.022278	0.024872	-0.033722	-0.021515	0.24384	0.014801	-0.007019	0.022583	0.02533	-0.002747	-0.010681	-0.017395	-0.071716	0.019073	-0.032501	-0.17075	0.28503	0.12528	0.097351	0.11444	-0.035858	0.074158	-0.012817	-0.018158	-0.014191	0.008392	0.85236	0.023346	-0.003204	-0.014343
30.239	0.002747	0.20538	0.039978	-0.012817	-0.027466	-0.030518	0.21668	0.017242	0.014648	0.036774	0.047455	-0.005341	-0.050507	0.034332	-0.026398	0.015717	-0.009613	-0.1059	0.41504	0.15289	0.026703	0.10941	0.091095	0.042877	-0.018005	-0.027771	-0.000153	-0.000916	0.39063	0.006866	-0.001221	-0.00885
30.24	0.000305	0.20355	0.033264	-0.031281	-0.016174	-0.034332	0.19562	0.017242	0.031433	0.047607	0.008698	-0.006561	-0.073242	0.019226	-0.010376	0.014648	-0.018768	-0.16983	0.25894	0.063477	0.030518	0.010071	0.086517	-0.006409	-0.040436	-0.00824	-0.057373	-0.008698	-0.45685	0.035706	-0.002441	0.002747
30.241	-0.001221	0.22629	0.027924	-0.01358	-0.031891	-0.066071	0.19379	0.010681	0.056	0.049744	0.018921	-0.000763	-0.058441	0.023956	0.001678	0.00885	-0.000916	-0.12924	0.39322	-0.074158	0.011292	-0.079346	-0.14618	-0.10239	-0.069733	-0.014496	0.003357	0.002289	-1.58	0.24918	-0.00351	-0.005035
30.242	0.005188	0.24078	0.014191	-0.026855	-0.040436	-0.077972	0.15701	0.014801	0.065918	0.021515	0.011902	-0.001678	-0.055847	0.027771	0.002441	0.013275	0.010376	-0.10025	0.96786	-0.12619	-0.042572	-0.112	-0.24948	-0.058746	-0.035706	-0.014801	0.010376	0.004425	0.37659	0.11475	0.005493	0.007935
30.243	0.009155	0.20111	0.017242	0.00412	0.012665	-0.08316	0.15198	0.013123	0.072327	-0.032959	-0.003204	-0.011292	-0.002899	0.023499	-0.021973	0.001984	0.004425	-0.1741	0.63309	-0.10223	-0.031128	-0.024414	-0.23727	0.06546	-0.005646	0.007477	-0.06485	0.007477	0.81589	-0.093842	0.001526	0.002899
30.244	0.01236	0.20798	-0.009766	0.007324	0.046234	-0.058899	0.15457	0.015106	0.076752	-0.027618	0.00946	-0.006866	0.070343	0.024414	0.011139	0.015411	0.013885	-0.22827	0.31937	-0.039063	-0.037079	-0.037994	-0.10849	-0.017548	-0.027771	0.001984	-0.057678	0.001526	0.98846	-0.24429	-0.003662	-0.000305
30.245	0.017242	0.21805	-0.001221	0.003204	0.041504	-0.026398	0.13763	0.012512	0.072327	-0.006409	0.055084	-0.000458	0.050964	0.039673	0.065613	0.018463	0.01358	-0.30853	0.2536	-0.053711	-0.028229	-0.054016	-0.32669	-0.14603	0.076447	-0.013123	0.036926	-0.000153	-0.16281	-0.13901	-0.003662	-0.005188
30.246	0.008087	0.20996	-0.012817	0.013123	0.016479	-0.026703	0.14648	0.012665	0.086975	0.060577	0.037842	-0.002441	0.00946	0.044403	0.061798	0.007477	0.001984	-0.35782	-0.072632	-0.121	0.001068	-0.050354	-0.20783	-0.10422	0.07309	-0.019989	0.15259	-0.002899	-0.19806	-0.10132	0	0.000916
30.247	0.010071	0.20493	0.005188	0.014038	0.002594	-0.02121	0.13077	0.015259	0.078583	0.053864	-0.032654	-0.004425	0.034485	0.049591	0.063782	0.007324	0.024414	-0.41214	0.73669	-0.11231	0.008087	-0.071869	-0.024872	-0.095062	-0.006104	-0.020599	0.11368	-0.00061	-0.60776	-0.052185	-0.002594	-0.006866
30.248	0.007477	0.19196	-0.012207	0.024414	0.004578	-0.009613	0.12344	0.010529	0.076294	-0.016632	-0.12665	-0.001831	0.035248	0.06485	0.075073	0.001068	0.006409	-0.4866	0.33234	0.034332	0.002594	-0.065308	0.02243	-0.056915	-0.041046	-0.009155	0.053101	-0.003052	-1.1931	-0.05249	0.001221	-0.004578
30.249	0.00946	0.16495	-0.050201	0.002136	0.011749	0.001221	0.11475	0.014038	0.090637	-0.02533	-0.10391	-0.001984	0.009155	0.057983	0.062408	-0.000916	-0.005798	-0.63492	0.19196	0.097351	0.037994	-0.033264	-0.15915	0.009766	0.007782	0.004425	-0.18127	-0.000763	-1.3348	-0.20081	-0.003967	-0.00946
30.25	0.000153	0.1651	-0.025635	-0.006104	0.006561	0.014801	0.11597	0.009613	0.095367	-0.064697	-0.053864	-0.002747	0.016937	0.061035	-0.03418	0.000305	0.006714	-0.60562	0.66055	0.14572	0.0914	-0.007477	-0.22049	0.017853	0.003052	0.011902	-0.25971	0.000153	1.0536	-0.22614	0.000153	-0.007629
30.251	0.011749	0.18662	-0.00351	-0.008087	-0.011749	0.019379	0.10254	0.014648	0.093384	-0.015259	-0.003815	-0.004425	0.01358	0.0383	-0.052948	0.007019	0.020752	-0.39002	1.7403	0.065613	0.027924	-0.033875	-0.13229	-0.000458	-0.032654	0.004578	-0.076752	-0.000153	1.1331	-0.08667	-0.000916	-0.009003
30.252	-0.073242	0.1651	0.020599	0.001678	-0.016632	0.015717	0.10193	0.014801	0.10422	0.028381	0.06546	0	0.012665	-0.002899	-0.080109	-0.009613	0.014801	-0.42465	0.86136	0.057526	-0.14572	-0.042419	-0.045319	-0.002289	-0.061035	0.003662	-0.06012	0.002594	0.23972	-0.089417	-0.002747	-0.008087
